<mxfile host="app.diagrams.net" agent="Mozilla/5.0 (Macintosh; Intel Mac OS X 10_15_7) AppleWebKit/537.36 (KHTML, like Gecko) Chrome/138.0.0.0 Safari/537.36" version="28.0.4">
  <diagram name="Seite-1" id="pS_xbVQlXmVIXoI0KuR6">
    <mxGraphModel dx="1186" dy="693" grid="1" gridSize="10" guides="1" tooltips="1" connect="1" arrows="1" fold="1" page="1" pageScale="1" pageWidth="827" pageHeight="1169" math="0" shadow="0">
      <root>
        <mxCell id="0" />
        <mxCell id="1" parent="0" />
        <mxCell id="9Ni5nYkfTMzhnMwHUXIL-1" value="Video See-Through&#xa;(VST)&#xa;User&#xa;Object&#xa;AR&#xa;Transparent&#xa;Display&#xa;Direct View&#xa;AR Only&#xa;Direct view through display&#xa;AR overlaid optically&#xa;Optical See-Through&#xa;(OST)&#xa;User&#xa;Object&#xa;Projector&#xa;Object + AR&#xa;AR Projection&#xa;Direct View&#xa;AR projected onto&#xa;physical surfaces&#xa;Projection-Based&#xa;AR" style="text;whiteSpace=wrap;" vertex="1" parent="1">
          <mxGeometry x="610" y="50" width="180" height="350" as="geometry" />
        </mxCell>
      </root>
    </mxGraphModel>
  </diagram>
</mxfile>
